<svg xmlns="http://www.w3.org/2000/svg" xmlns:xlink="http://www.w3.org/1999/xlink" style="display:none">
  <!-- React Icon -->
  <symbol id="react" viewBox="0 0 569 512">
    <g fill="none" fill-rule="evenodd">
      <g transform="translate(-227, -256)" fill="#58C4DC" fill-rule="nonzero">
        <g transform="translate(227, 256)">
          <path d="M285.5,201 C255.400481,201 231,225.400481 231,255.5 C231,285.599519 255.400481,310 285.5,310 C315.599519,310 340,285.599519 340,255.5 C340,225.400481 315.599519,201 285.5,201" id="Path"></path>
          <path d="M568.959856,255.99437 C568.959856,213.207656 529.337802,175.68144 466.251623,150.985214 C467.094645,145.423543 467.85738,139.922107 468.399323,134.521063 C474.621631,73.0415145 459.808523,28.6686204 426.709856,9.5541429 C389.677085,-11.8291748 337.36955,3.69129898 284.479928,46.0162134 C231.590306,3.69129898 179.282771,-11.8291748 142.25,9.5541429 C109.151333,28.6686204 94.3382249,73.0415145 100.560533,134.521063 C101.102476,139.922107 101.845139,145.443621 102.708233,151.02537 C97.4493791,153.033193 92.2908847,155.161486 87.3331099,157.39017 C31.0111824,182.708821 0,217.765415 0,255.99437 C0,298.781084 39.6220545,336.307301 102.708233,361.003527 C101.845139,366.565197 101.102476,372.066633 100.560533,377.467678 C94.3382249,438.947226 109.151333,483.32012 142.25,502.434597 C153.629683,508.887578 166.52439,512.186771 179.603923,511.991836 C210.956328,511.991836 247.567589,495.487529 284.479928,465.972527 C321.372196,495.487529 358.003528,511.991836 389.396077,511.991836 C402.475265,512.183856 415.36922,508.884856 426.75,502.434597 C459.848667,483.32012 474.661775,438.947226 468.439467,377.467678 C467.897524,372.066633 467.134789,366.565197 466.291767,361.003527 C529.377946,336.347457 569,298.761006 569,255.99437 M389.155214,27.1025182 C397.565154,26.899606 405.877839,28.9368502 413.241569,33.0055186 C436.223966,46.2772304 446.540955,82.2775015 441.522965,131.770345 C441.181741,135.143488 440.780302,138.556788 440.298575,141.990165 C414.066922,134.08804 387.205771,128.452154 360.010724,125.144528 C343.525021,103.224055 325.192524,82.7564475 305.214266,63.9661533 C336.586743,39.7116483 366.032313,27.1025182 389.135142,27.1025182 M378.356498,310.205598 C368.204912,327.830733 357.150626,344.919965 345.237759,361.405091 C325.045049,363.479997 304.758818,364.51205 284.459856,364.497299 C264.167589,364.51136 243.888075,363.479308 223.702025,361.405091 C211.820914,344.919381 200.80007,327.83006 190.683646,310.205598 C180.532593,292.629285 171.306974,274.534187 163.044553,255.99437 C171.306974,237.454554 180.532593,219.359455 190.683646,201.783142 C200.784121,184.229367 211.770999,167.201087 223.601665,150.764353 C243.824636,148.63809 264.145559,147.579168 284.479928,147.591877 C304.772146,147.579725 325.051559,148.611772 345.237759,150.68404 C357.109048,167.14607 368.136094,184.201112 378.27621,201.783142 C388.419418,219.363718 397.644825,237.458403 405.915303,255.99437 C397.644825,274.530337 388.419418,292.625022 378.27621,310.205598 M419.724813,290.127366 C426.09516,307.503536 431.324985,325.277083 435.380944,343.334682 C417.779633,348.823635 399.836793,353.149774 381.668372,356.285142 C388.573127,345.871232 395.263781,335.035679 401.740334,323.778483 C408.143291,312.655143 414.144807,301.431411 419.805101,290.207679 M246.363271,390.377981 C258.848032,391.140954 271.593728,391.582675 284.5,391.582675 C297.406272,391.582675 310.232256,391.140954 322.737089,390.377981 C310.880643,404.583418 298.10766,417.997563 284.5,430.534446 C270.921643,417.999548 258.18192,404.585125 246.363271,390.377981 Z M187.311556,356.244986 C169.137286,353.123646 151.187726,348.810918 133.578912,343.334682 C137.618549,325.305649 142.828222,307.559058 149.174827,290.207679 C154.754833,301.431411 160.736278,312.655143 167.239594,323.778483 C173.74291,334.901824 180.467017,345.864539 187.311556,356.285142 M149.174827,221.760984 C142.850954,204.473938 137.654787,186.794745 133.619056,168.834762 C151.18418,163.352378 169.085653,159.013101 187.211197,155.844146 C180.346585,166.224592 173.622478,176.986525 167.139234,188.210257 C160.65599,199.433989 154.734761,210.517173 149.074467,221.760984 M322.616657,121.590681 C310.131896,120.827708 297.3862,120.385987 284.379568,120.385987 C271.479987,120.385987 258.767744,120.787552 246.242839,121.590681 C258.061488,107.383537 270.801211,93.9691137 284.379568,81.4342157 C297.99241,93.9658277 310.765727,107.380324 322.616657,121.590681 Z M401.70019,188.210257 C395.196875,176.939676 388.472767,166.09743 381.527868,155.68352 C399.744224,158.819049 417.734224,163.151949 435.380944,168.654058 C431.331963,186.680673 426.122466,204.426664 419.785029,221.781062 C414.205023,210.55733 408.203506,199.333598 401.720262,188.230335 M127.517179,131.790423 C122.438973,82.3176579 132.816178,46.2973086 155.778503,33.0255968 C163.144699,28.9632474 171.455651,26.9264282 179.864858,27.1225964 C202.967687,27.1225964 232.413257,39.7317265 263.785734,63.9862316 C243.794133,82.7898734 225.448298,103.270812 208.949132,125.204763 C181.761691,128.528025 154.90355,134.14313 128.661281,141.990165 C128.199626,138.556788 127.778115,135.163566 127.456963,131.790423 M98.4529773,182.106474 C101.54406,180.767925 104.695358,179.429376 107.906872,178.090828 C114.220532,204.735668 122.781793,230.7969 133.498624,255.99437 C122.761529,281.241316 114.193296,307.357063 107.8868,334.058539 C56.7434387,313.076786 27.0971497,284.003505 27.0971497,255.99437 C27.0971497,229.450947 53.1907013,202.526037 98.4529773,182.106474 Z M155.778503,478.963143 C132.816178,465.691432 122.438973,429.671082 127.517179,380.198317 C127.838331,376.825174 128.259842,373.431953 128.721497,369.978497 C154.953686,377.878517 181.814655,383.514365 209.009348,386.824134 C225.500295,408.752719 243.832321,429.233234 263.805806,448.042665 C220.069,481.834331 180.105722,492.97775 155.838719,478.963143 M441.502893,380.198317 C446.520883,429.691161 436.203894,465.691432 413.221497,478.963143 C388.974566,493.017906 348.991216,481.834331 305.274481,448.042665 C325.241364,429.232737 343.566681,408.752215 360.050868,386.824134 C387.245915,383.516508 414.107066,377.880622 440.338719,369.978497 C440.820446,373.431953 441.221885,376.825174 441.563109,380.198317 M461.193488,334.018382 C454.869166,307.332523 446.294494,281.231049 435.561592,255.99437 C446.289797,230.744081 454.857778,204.629101 461.173416,177.930202 C512.216417,198.911955 541.942994,227.985236 541.942994,255.99437 C541.942994,284.003505 512.296705,313.076786 461.153344,334.058539" id="Shape"></path>
        </g>
      </g>
    </g>
  </symbol>
  <!-- Node Icon -->
  <symbol id="node" viewBox="0 0 256 292">
    <defs>
      <linearGradient id="a" x1="68.188%" x2="27.823%" y1="17.487%" y2="89.755%"><stop offset="0%" stop-color="#41873F"/><stop offset="32.88%" stop-color="#418B3D"/><stop offset="63.52%" stop-color="#419637"/><stop offset="93.19%" stop-color="#3FA92D"/><stop offset="100%" stop-color="#3FAE2A"/></linearGradient>
      <linearGradient id="c" x1="43.277%" x2="159.245%" y1="55.169%" y2="-18.306%"><stop offset="13.76%" stop-color="#41873F"/><stop offset="40.32%" stop-color="#54A044"/><stop offset="71.36%" stop-color="#66B848"/><stop offset="90.81%" stop-color="#6CC04A"/></linearGradient>
      <linearGradient id="f" x1="-4.389%" x2="101.499%" y1="49.997%" y2="49.997%"><stop offset="9.192%" stop-color="#6CC04A"/><stop offset="28.64%" stop-color="#66B848"/><stop offset="59.68%" stop-color="#54A044"/><stop offset="86.24%" stop-color="#41873F"/></linearGradient>
      <path id="b" d="M134.923 1.832c-4.344-2.443-9.502-2.443-13.846 0L6.787 67.801C2.443 70.244 0 74.859 0 79.745v132.208c0 4.887 2.715 9.502 6.787 11.945l114.29 65.968c4.344 2.444 9.502 2.444 13.846 0l114.29-65.968c4.344-2.443 6.787-7.058 6.787-11.945V79.745c0-4.886-2.715-9.501-6.787-11.944L134.923 1.832Z"/>
      <path id="e" d="M134.923 1.832c-4.344-2.443-9.502-2.443-13.846 0L6.787 67.801C2.443 70.244 0 74.859 0 79.745v132.208c0 4.887 2.715 9.502 6.787 11.945l114.29 65.968c4.344 2.444 9.502 2.444 13.846 0l114.29-65.968c4.344-2.443 6.787-7.058 6.787-11.945V79.745c0-4.886-2.715-9.501-6.787-11.944L134.923 1.832Z"/>
    </defs>
    <path fill="url(#a)" d="M134.923 1.832c-4.344-2.443-9.502-2.443-13.846 0L6.787 67.801C2.443 70.244 0 74.859 0 79.745v132.208c0 4.887 2.715 9.502 6.787 11.945l114.29 65.968c4.344 2.444 9.502 2.444 13.846 0l114.29-65.968c4.344-2.443 6.787-7.058 6.787-11.945V79.745c0-4.886-2.715-9.501-6.787-11.944L134.923 1.832Z"/>
    <mask id="d" fill="#fff"><use xlink:href="#b"/></mask>
    <path fill="url(#c)" d="M249.485 67.8 134.65 1.833c-1.086-.542-2.443-1.085-3.529-1.357L2.443 220.912c1.086 1.357 2.444 2.443 3.8 3.258l114.834 65.968c3.258 1.9 7.059 2.443 10.588 1.357L252.47 70.515c-.815-1.086-1.9-1.9-2.986-2.714Z" mask="url(#d)"/>
    <mask id="g" fill="#fff"><use xlink:href="#e"/></mask>
    <path fill="url(#f)" d="M249.756 223.898c3.258-1.9 5.701-5.158 6.787-8.687L130.579.204c-3.258-.543-6.787-.272-9.773 1.628L6.786 67.53l122.979 224.238c1.628-.272 3.529-.815 5.158-1.63l114.833-66.239Z" mask="url(#g)"/>
  </symbol>
  <!-- TypeScript Icon -->
  <symbol id="typescript" viewBox="0 0 256 256">
    <rect width="256" height="256" rx="20" fill="#3178C6"/>
    <path d="M150.518 200.475v27.62c4.492 2.302 9.805 4.028 15.938 5.179 6.133 1.151 12.597 1.726 19.393 1.726 6.622 0 12.914-.633 18.874-1.899 5.96-1.266 11.187-3.352 15.678-6.257 4.492-2.906 8.048-6.704 10.669-11.394 2.62-4.689 3.93-10.486 3.93-17.391 0-5.006-.749-9.394-2.246-13.163a30.748 30.748 0 0 0-6.479-10.055c-2.821-2.935-6.205-5.567-10.149-7.898-3.945-2.33-8.394-4.531-13.347-6.602-3.628-1.497-6.881-2.949-9.761-4.359-2.879-1.41-5.327-2.848-7.342-4.316-2.016-1.467-3.571-3.021-4.665-4.661-1.094-1.64-1.641-3.495-1.641-5.567 0-1.899.489-3.61 1.468-5.135s2.362-2.834 4.147-3.927c1.785-1.094 3.973-1.942 6.565-2.547 2.591-.604 5.471-.906 8.638-.906 2.304 0 4.737.173 7.299.518 2.563.345 5.14.877 7.732 1.597a53.669 53.669 0 0 1 7.558 2.719 41.7 41.7 0 0 1 6.781 3.797v-25.807c-4.204-1.611-8.797-2.805-13.778-3.582-4.981-.777-10.697-1.165-17.147-1.165-6.565 0-12.784.705-18.658 2.115-5.874 1.409-11.043 3.61-15.506 6.602-4.463 2.993-7.99 6.805-10.582 11.437-2.591 4.632-3.887 10.17-3.887 16.615 0 8.228 2.375 15.248 7.127 21.06 4.751 5.811 11.963 10.731 21.638 14.759a291.458 291.458 0 0 1 10.625 4.575c3.283 1.496 6.119 3.049 8.509 4.66 2.39 1.611 4.276 3.366 5.658 5.265 1.382 1.899 2.073 4.057 2.073 6.474a9.901 9.901 0 0 1-1.296 4.963c-.863 1.524-2.174 2.848-3.93 3.97-1.756 1.122-3.945 1.999-6.565 2.632-2.62.633-5.687.95-9.2.95-5.989 0-11.92-1.05-17.794-3.151-5.875-2.1-11.317-5.25-16.327-9.451Zm-46.036-68.733H140V109H41v22.742h35.345V233h28.137V131.742Z" fill="#FFF"/>
  </symbol>

  <symbol id="html" viewBox="0 0 452 520">
    <path fill="#e34f26" d="M41 460L0 0h451l-41 460-185 52" />
    <path fill="#ef652a" d="M226 472l149-41 35-394H226" />
    <path fill="#ecedee" d="M226 208h-75l-5-58h80V94H84l15 171h127zm0 147l-64-17-4-45h-56l7 89 117 32z"/>
    <path fill="#fff" d="M226 265h69l-7 73-62 17v59l115-32 16-174H226zm0-171v56h136l5-56z"/>
  </symbol>
  
  <!-- CSS Icon -->
  <symbol id="css" viewBox="0 0 1000 1000">
    <path fill="#639" d="M0 0h840a160 160 0 0 1 160 160v680a160 160 0 0 1-160 160H160A160 160 0 0 1 0 840V0Z"/>
    <path fill="#fff" d="M816.54 919.9c-32.39 0-57.16-9.42-74.5-28.35-17.15-19.03-26.08-46.18-26.88-81.64h69.8c.4 31.36 11.42 47.08 33.08 47.08 11.04 0 18.86-3.5 23.37-10.42 4.41-6.9 6.72-17.93 6.72-33.05 0-12.02-3.01-22.04-8.83-29.95a73.2 73.2 0 0 0-29.48-21.14L783.95 750c-23.06-11.02-39.81-24.04-50.14-39.27-10.03-15.13-15.04-36.36-15.04-63.5 0-30.36 8.83-55 26.37-73.94 18.05-18.93 42.62-28.34 74-28.34 30.3 0 53.76 9.31 70.3 27.84 16.85 18.64 25.67 45.28 26.38 80.14h-67.19c.4-11.4-1.9-22.72-6.72-33.06-3.8-7.6-11.23-11.41-22.26-11.41-19.65 0-29.48 11.71-29.48 35.05 0 11.83 2.4 21.04 7.22 28.05A65.18 65.18 0 0 0 822.76 689l24.77 10.92c25.57 11.72 44.02 26.05 55.35 43.38 11.43 17.23 17.05 40.27 17.05 69.12 0 34.56-9.03 61.1-27.38 79.63-18.25 18.53-43.62 27.85-76 27.85Zm-225.42 0c-32.4 0-57.16-9.42-74.51-28.35-17.15-19.03-26.07-46.18-26.87-81.64h69.79c.4 31.36 11.43 47.08 33.1 47.08 11.02 0 18.84-3.5 23.25-10.42 4.52-6.9 6.72-17.93 6.72-33.05 0-12.02-2.9-22.04-8.72-29.95a73.2 73.2 0 0 0-29.48-21.14L558.53 750c-23.07-11.02-39.81-24.04-50.14-39.27-10.03-15.13-15.04-36.36-15.04-63.5 0-30.36 8.82-55 26.37-73.94 18.05-18.93 42.62-28.34 74-28.34 30.29 0 53.75 9.31 70.2 27.84 17.05 18.64 25.77 45.28 26.47 80.14h-67.18c.4-11.4-1.9-22.72-6.72-33.06-3.81-7.6-11.23-11.41-22.26-11.41-19.66 0-29.49 11.71-29.49 35.05 0 11.83 2.41 21.04 7.22 28.05A65.18 65.18 0 0 0 597.33 689l24.77 10.92c25.57 11.72 44.02 26.05 55.36 43.38 11.33 17.23 17.04 40.27 17.04 69.12 0 34.56-9.12 61.1-27.37 79.63-18.25 18.53-43.62 27.85-76.01 27.85Zm-234.75 0c-31.7 0-56.86-8.62-75.51-25.85-18.65-17.12-27.88-42.87-27.88-76.93V648.83c0-33.85 9.83-59.5 29.48-77.13 19.96-17.43 46.13-26.24 78.52-26.24 31.39 0 56.15 9.01 74.5 26.84 18.56 17.93 27.88 44.58 27.88 80.14v13.32h-73.9v-12.92c0-13.72-3.01-23.84-8.83-30.45a26.46 26.46 0 0 0-21.66-10.32c-12.03 0-20.55 4.1-25.37 12.42a79.04 79.04 0 0 0-6.72 36.66v146.26c0 30.55 10.74 46.08 32.1 46.38 10.02 0 17.54-3.61 22.76-10.82a51.74 51.74 0 0 0 7.72-30.46V801.6h73.9v11.42c0 23.74-4.61 43.57-13.94 59.4a88.8 88.8 0 0 1-38.2 35.66 121.46 121.46 0 0 1-54.85 11.82Z"/>
  </symbol>
  <!-- Instagram Icon -->
  <symbol id="instagram" viewBox="0 0 256 256">
    <path fill="currentColor" d="M128 23.064c34.177 0 38.225.13 51.722.745 12.48.57 19.258 2.655 23.769 4.408 5.974 2.322 10.238 5.096 14.717 9.575 4.48 4.479 7.253 8.743 9.575 14.717 1.753 4.511 3.838 11.289 4.408 23.768.615 13.498.745 17.546.745 51.723 0 34.178-.13 38.226-.745 51.723-.57 12.48-2.655 19.257-4.408 23.768-2.322 5.974-5.096 10.239-9.575 14.718-4.479 4.479-8.743 7.253-14.717 9.574-4.511 1.753-11.289 3.839-23.769 4.408-13.495.616-17.543.746-51.722.746-34.18 0-38.228-.13-51.723-.746-12.48-.57-19.257-2.655-23.768-4.408-5.974-2.321-10.239-5.095-14.718-9.574-4.479-4.48-7.253-8.744-9.574-14.718-1.753-4.51-3.839-11.288-4.408-23.768-.616-13.497-.746-17.545-.746-51.723 0-34.177.13-38.225.746-51.722.57-12.48 2.655-19.258 4.408-23.769 2.321-5.974 5.095-10.238 9.574-14.717 4.48-4.48 8.744-7.253 14.718-9.575 4.51-1.753 11.289-3.838 23.768-4.408 13.497-.615 17.545-.745 51.723-.745M128 0C93.237 0 88.878.147 75.226.77c-13.625.622-22.93 2.786-31.071 5.95-8.418 3.271-15.556 7.648-22.672 14.764C14.367 28.6 9.991 35.738 6.72 44.155 3.555 52.297 1.392 61.602.77 75.226.147 88.878 0 93.237 0 128c0 34.763.147 39.122.77 52.774.622 13.625 2.785 22.93 5.95 31.071 3.27 8.417 7.647 15.556 14.763 22.672 7.116 7.116 14.254 11.492 22.672 14.763 8.142 3.165 17.446 5.328 31.07 5.95 13.653.623 18.012.77 52.775.77s39.122-.147 52.774-.77c13.624-.622 22.929-2.785 31.07-5.95 8.418-3.27 15.556-7.647 22.672-14.763 7.116-7.116 11.493-14.254 14.764-22.672 3.164-8.142 5.328-17.446 5.95-31.07.623-13.653.77-18.012.77-52.775s-.147-39.122-.77-52.774c-.622-13.624-2.786-22.929-5.95-31.07-3.271-8.418-7.648-15.556-14.764-22.672C227.4 14.368 220.262 9.99 211.845 6.72c-8.142-3.164-17.447-5.328-31.071-5.95C167.122.147 162.763 0 128 0Zm0 62.27C91.698 62.27 62.27 91.7 62.27 128c0 36.302 29.428 65.73 65.73 65.73 36.301 0 65.73-29.428 65.73-65.73 0-36.301-29.429-65.73-65.73-65.73Zm0 108.397c-23.564 0-42.667-19.103-42.667-42.667S104.436 85.333 128 85.333s42.667 19.103 42.667 42.667-19.103 42.667-42.667 42.667Zm83.686-110.994c0 8.484-6.876 15.36-15.36 15.36-8.483 0-15.36-6.876-15.36-15.36 0-8.483 6.877-15.36 15.36-15.36 8.484 0 15.36 6.877 15.36 15.36Z"/>
  </symbol>
  <!-- X (Twitter) Icon -->
  <symbol id="x" viewBox="0 0 1200 1227">
    <path fill="currentColor" d="M714.163 519.284 1160.89 0h-105.86L667.137 450.887 357.328 0H0l468.492 681.821L0 1226.37h105.866l409.625-476.152 327.181 476.152H1200L714.137 519.284h.026ZM569.165 687.828l-47.468-67.894-377.686-540.24h162.604l304.797 435.991 47.468 67.894 396.2 566.721H892.476L569.165 687.854v-.026Z"/>
  </symbol>
  <!-- YouTube Icon -->
  <symbol id="youtube" viewBox="0 0 256 180">
    <path d="M250.346 28.075A32.18 32.18 0 0 0 227.69 5.418C207.824 0 127.87 0 127.87 0S47.912.164 28.046 5.582A32.18 32.18 0 0 0 5.39 28.24c-6.009 35.298-8.34 89.084.165 122.97a32.18 32.18 0 0 0 22.656 22.657c19.866 5.418 99.822 5.418 99.822 5.418s79.955 0 99.82-5.418a32.18 32.18 0 0 0 22.657-22.657c6.338-35.348 8.291-89.1-.164-123.134Z" fill="red"/>
    <path fill="#FFF" d="m102.421 128.06 66.328-38.418-66.328-38.418z"/>
  </symbol>
  <!-- LinkedIn Icon -->
  <symbol id="linkedin" viewBox="0 0 256 256">
    <path d="M218.123 218.127h-37.931v-59.403c0-14.165-.253-32.4-19.728-32.4-19.756 0-22.779 15.434-22.779 31.369v60.43h-37.93V95.967h36.413v16.694h.51a39.907 39.907 0 0 1 35.928-19.733c38.445 0 45.533 25.288 45.533 58.186l-.016 67.013ZM56.955 79.27c-12.157.002-22.014-9.852-22.016-22.009-.002-12.157 9.851-22.014 22.008-22.016 12.157-.003 22.014 9.851 22.016 22.008A22.013 22.013 0 0 1 56.955 79.27m18.966 138.858H37.95V95.967h37.97v122.16ZM237.033.018H18.89C8.58-.098.125 8.161-.001 18.471v219.053c.122 10.315 8.576 18.582 18.89 18.474h218.144c10.336.128 18.823-8.139 18.966-18.474V18.454c-.147-10.33-8.635-18.588-18.966-18.453" fill="#0A66C2"/>
  </symbol>
  <!-- GitHub Icon -->
  <symbol id="github" viewBox="0 0 1024 1024">
    <path fill-rule="evenodd" clip-rule="evenodd" d="M8 0C3.58 0 0 3.58 0 8C0 11.54 2.29 14.53 5.47 15.59C5.87 15.66 6.02 15.42 6.02 15.21C6.02 15.02 6.01 14.39 6.01 13.72C4 14.09 3.48 13.23 3.32 12.78C3.23 12.55 2.84 11.84 2.5 11.65C2.22 11.5 1.82 11.13 2.49 11.12C3.12 11.11 3.57 11.7 3.72 11.94C4.44 13.15 5.59 12.81 6.05 12.6C6.12 12.08 6.33 11.73 6.56 11.53C4.78 11.33 2.92 10.64 2.92 7.58C2.92 6.71 3.23 5.99 3.74 5.43C3.66 5.23 3.38 4.41 3.82 3.31C3.82 3.31 4.49 3.1 6.02 4.13C6.66 3.95 7.34 3.86 8.02 3.86C8.7 3.86 9.38 3.95 10.02 4.13C11.55 3.09 12.22 3.31 12.22 3.31C12.66 4.41 12.38 5.23 12.3 5.43C12.81 5.99 13.12 6.7 13.12 7.58C13.12 10.65 11.25 11.33 9.47 11.53C9.76 11.78 10.01 12.26 10.01 13.01C10.01 14.08 10 14.94 10 15.21C10 15.42 10.15 15.67 10.55 15.59C13.71 14.53 16 11.53 16 8C16 3.58 12.42 0 8 0Z" transform="scale(64)" fill="currentColor"/>
  </symbol>
  <!-- Twitch Icon -->
  <symbol id="twitch" viewBox="0 0 2400 2800">
    <path fill="#fff" d="m2200 1300-400 400h-400l-350 350v-350H600V200h1600z"/>
    <g fill="#9146ff">
      <path d="M500 0 0 500v1800h600v500l500-500h400l900-900V0H500zm1700 1300-400 400h-400l-350 350v-350H600V200h1600v1100z"/>
      <path d="M1700 550h200v600h-200zm-550 0h200v600h-200z"/>
    </g>
  </symbol>
  <!-- Verified Icon -->
    <symbol id="verified" viewBox="0 0 20 20">
        <path fill-rule="evenodd" d="M10 18a8 8 0 100-16 8 8 0 000 16zm3.707-8.707a1 1 0 00-1.414-1.414L9 11.172l-1.293-1.293a1 1 0 00-1.414 1.414l2 2a1 1 0 001.414 0l4-4z" clip-rule="evenodd" />
    </symbol>

    <symbol id="setting" viewBox="0 0 24 24" stroke="currentColor" fill="none" stroke-width="2">
        <path stroke-linecap="round" stroke-linejoin="round" d="M10.343 3.94c.09-.542.56-.94 1.11-.94h1.093c.55 0 1.02.398 1.11.94l.149.894c.07.424.384.764.78.93.398.164.855.142 1.205-.108l.737-.527a1.125 1.125 0 0 1 1.45.12l.773.774c.39.389.44 1.002.12 1.45l-.527.737c-.25.35-.272.806-.107 1.204.165.397.505.71.93.78l.893.15c.543.09.94.559.94 1.109v1.094c0 .55-.397 1.02-.94 1.11l-.894.149c-.424.07-.764.383-.929.78-.165.398-.143.854.107 1.204l.527.738c.32.447.269 1.06-.12 1.45l-.774.773a1.125 1.125 0 0 1-1.449.12l-.738-.527c-.35-.25-.806-.272-1.203-.107-.398.165-.71.505-.781.929l-.149.894c-.09.542-.56.94-1.11.94h-1.094c-.55 0-1.019-.398-1.11-.94l-.148-.894c-.071-.424-.384-.764-.781-.93-.398-.164-.854-.142-1.204.108l-.738.527c-.447.32-1.06.269-1.45-.12l-.773-.774a1.125 1.125 0 0 1-.12-1.45l.527-.737c.25-.35.272-.806.108-1.204-.165-.397-.506-.71-.93-.78l-.894-.15c-.542-.09-.94-.56-.94-1.109v-1.094c0-.55.398-1.02.94-1.11l.894-.149c.424-.07.765-.383.93-.78.165-.398.143-.854-.108-1.204l-.526-.738a1.125 1.125 0 0 1 .12-1.45l.773-.773a1.125 1.125 0 0 1 1.45-.12l.737.527c.35.25.807.272 1.204.107.397-.165.71-.505.78-.929l.15-.894Z" />
        <path stroke-linecap="round" stroke-linejoin="round" d="M15 12a3 3 0 1 1-6 0 3 3 0 0 1 6 0Z" />
    </symbol>

    <symbol id="google" viewBox="0 0 48 48"  fill="none" stroke-width="2">
      <path xmlns="http://www.w3.org/2000/svg" fill="#FFC107" d="M43.611,20.083H42V20H24v8h11.303c-1.649,4.657-6.08,8-11.303,8c-6.627,0-12-5.373-12-12c0-6.627,5.373-12,12-12c3.059,0,5.842,1.154,7.961,3.039l5.657-5.657C34.046,6.053,29.268,4,24,4C12.955,4,4,12.955,4,24c0,11.045,8.955,20,20,20c11.045,0,20-8.955,20-20C44,22.659,43.862,21.35,43.611,20.083z"/>
      <path xmlns="http://www.w3.org/2000/svg" fill="#FF3D00" d="M6.306,14.691l6.571,4.819C14.655,15.108,18.961,12,24,12c3.059,0,5.842,1.154,7.961,3.039l5.657-5.657C34.046,6.053,29.268,4,24,4C16.318,4,9.656,8.337,6.306,14.691z"/>
      <path xmlns="http://www.w3.org/2000/svg" fill="#4CAF50" d="M24,44c5.166,0,9.86-1.977,13.409-5.192l-6.19-5.238C29.211,35.091,26.715,36,24,36c-5.202,0-9.619-3.317-11.283-7.946l-6.522,5.025C9.505,39.556,16.227,44,24,44z"/>
      <path xmlns="http://www.w3.org/2000/svg" fill="#1976D2" d="M43.611,20.083H42V20H24v8h11.303c-0.792,2.237-2.231,4.166-4.087,5.571c0.001-0.001,0.002-0.001,0.003-0.002l6.19,5.238C36.971,39.205,44,34,44,24C44,22.659,43.862,21.35,43.611,20.083z"/>
    </symbol>

    <symbol id="gitlogin" viewBox="0 0 64 64"  fill="none" stroke-width="2">
      <path xmlns="http://www.w3.org/2000/svg" fill="#00020c" fill-rule="evenodd" d="m60,12c0-4.42-3.58-8-8-8H12c-4.42,0-8,3.58-8,8v40c0,4.42,3.58,8,8,8h40c4.42,0,8-3.58,8-8V12h0Z"/>
      <path xmlns="http://www.w3.org/2000/svg" fill="#fff" fill-rule="evenodd" d="m26.73,47.67c0,1.1-.01,2.3-.01,3.4,0,.26-.13.51-.34.67-.21.16-.49.2-.74.13-8.4-2.7-14.49-10.58-14.49-19.87,0-11.51,9.34-20.85,20.85-20.85s20.85,9.34,20.85,20.85c0,9.28-6.08,17.15-14.46,19.85-.25.08-.53.03-.74-.13-.21-.16-.34-.4-.34-.67-.02-2.45-.03-5.34-.03-6.65s-1.28-2.39-1.28-2.39c0,0,9.45-1.16,9.45-9.34,0-5.19-2.06-6.94-2.06-6.94.44-1.86.38-3.63-.1-5.31-.07-.24-.31-.4-.56-.38-2.01.18-3.85.91-5.52,2.24,0,0-2.95-.81-5.2-.81h0c-2.25,0-5.2.81-5.2.81-1.67-1.32-3.52-2.06-5.52-2.24-.25-.02-.49.14-.56.38-.48,1.68-.54,3.45-.11,5.31,0,0-2.05,1.75-2.05,6.94,0,8.18,9.45,9.34,9.45,9.34,0,0-1.28,1.08-1.28,2.39v.3c-.72.26-1.7.5-2.8.43-2.99-.2-3.39-3.42-4.62-3.94-.9-.38-1.78-.43-2.45-.37-.2.02-.36.16-.41.35-.05.19.02.39.18.51.81.55,1.89,1.33,2.19,1.9.81,1.52,2.06,3.93,3.67,4.19,1.96.32,3.36.13,4.25-.12h0Z"/>
    </symbol>

    <symbol id="visible" viewBox="0 0 24 24"  fill="none" stroke-width="2">
        <path xmlns="http://www.w3.org/2000/svg" fill="#ffffffff" d="M12 16q1.875 0 3.188-1.313T16.5 11.5q0-1.875-1.313-3.188T12 7q-1.875 0-3.188 1.313T7.5 11.5q0 1.875 1.313 3.188T12 16Zm0-1.8q-1.125 0-1.913-.788T9.3 11.5q0-1.125.788-1.913T12 8.8q1.125 0 1.913.788T14.7 11.5q0 1.125-.787 1.913T12 14.2Zm0 4.8q-3.475 0-6.35-1.838T1.3 12.2q-.075-.125-.1-.312t-.025-.388q0-.2.025-.388t.1-.312q1.475-3.125 4.35-4.963T12 4q3.475 0 6.35 1.838T22.7 10.8q.075.125.1.313t.025.387q0 .2-.025.388t-.1.312q-1.475 3.125-4.35 4.963T12 19Zm0-7.5Zm0 5.5q2.825 0 5.188-1.488T20.8 11.5q-1.25-2.525-3.613-4.013T12 6Q9.175 6 6.812 7.488T3.2 11.5q1.25 2.525 3.613 4.013T12 17Z"/>
    </symbol>
    
    <symbol id="notvisible" viewBox="0 0 24 24"  fill="none" stroke-width="2">
      <path xmlns="http://www.w3.org/2000/svg" fill="#ffffffff" fill-rule="evenodd" d="M3.293 3.293a1 1 0 0 1 1.414 0l16 16a1 1 0 0 1-1.414 1.414l-16-16a1 1 0 0 1 0-1.414" clip-rule="evenodd"/>
      <path xmlns="http://www.w3.org/2000/svg" fill="#ffffffff" fill-rule="evenodd" d="M19.737 11.364c-1.55-3.999-5.46-5.831-9.084-5.27a1 1 0 0 1-.306-1.976c4.47-.693 9.337 1.573 11.255 6.524c.339.873.338 1.842.002 2.715q-.11.28-.23.552c-.224.5-.587 1.006-.85 1.374q-.114.158-.196.277a1 1 0 1 1-1.656-1.12q.176-.258.326-.466c.23-.323.416-.582.55-.883q.1-.222.19-.454c.158-.41.157-.865 0-1.273ZM6.747 6.562a1 1 0 0 1-.082 1.412a8 8 0 0 0-.892.93a9.5 9.5 0 0 0-1.47 2.412c-.18.434-.182.933 0 1.384c2.1 5.242 7.312 6.513 11.255 4.571q.46-.225.893-.51a1 1 0 0 1 1.098 1.672q-.538.352-1.107.633c-4.895 2.41-11.425.795-13.996-5.622a3.83 3.83 0 0 1 .01-2.897a11.5 11.5 0 0 1 1.77-2.91a10 10 0 0 1 1.11-1.157a1 1 0 0 1 1.41.082Z" clip-rule="evenodd"/>
      <path xmlns="http://www.w3.org/2000/svg" fill="#ffffffff" fill-rule="evenodd" d="M10.195 9.739a.79.79 0 0 1 .168 1.104a1.96 1.96 0 0 0-.376 1.327a1.96 1.96 0 0 0 .995 1.555c.33.186.718.28 1.126.246a1.96 1.96 0 0 0 1.201-.54a.79.79 0 0 1 1.094 1.139a3.54 3.54 0 0 1-2.167.976a3.54 3.54 0 0 1-3.101-1.374a3.54 3.54 0 0 1-.723-1.873a3.54 3.54 0 0 1 .679-2.393a.79.79 0 0 1 1.104-.167m4.865 2.567a.75.75 0 0 1-.865-.613a2 2 0 0 0-.814-1.294a2 2 0 0 0-.712-.321a.75.75 0 1 1 .337-1.462a3.52 3.52 0 0 1 2.667 2.824a.75.75 0 0 1-.613.865Z" clip-rule="evenodd"/>
    </symbol>


    <symbol id="CSS" viewBox="0 0 512 512">
      <path fill="#264de4" d="M72 460L30 0h451l-41 460-184 52"/>
      <path fill="#2965f1" d="M256 37V472l149-41 35-394"/>
      <path fill="#ebebeb" d="m114 94h142v56H119m5 58h132v57H129m3 28h56l4 45 64 17v59L139 382"/>
      <path fill="#ffffff" d="m256 208v57h69l-7 73-62 17v59l115-32 26-288H256v56h80l-5.5 58Z"/>
    </symbol>

    <symbol id="HTML" viewBox="0 0 32 32">
      <path d="M6 28L4 3H28L26 28L16 31L6 28Z" fill="#E44D26"/>
      <path d="M26 5H16V29.5L24 27L26 5Z" fill="#F16529"/>
      <path d="M9.5 17.5L8.5 8H24L23.5 11H11.5L12 14.5H23L22 24L16 26L10 24L9.5 19H12.5L13 21.5L16 22.5L19 21.5L19.5 17.5H9.5Z" fill="white"/>
    </symbol>

    <symbol id="JS" viewBox="0 0 32 32">
      <rect x="2" y="2" width="28" height="28" fill="#FFCA28" />
      <path d="M19 25.2879L21.0615 23.9237C21.2231 24.4313 22.2462 25.6368 23.5385 25.6368C24.8308 25.6368 25.4308 24.931 25.4308 24.463C25.4308 23.1878 24.1112 22.7382 23.4774 22.5223C23.374 22.4871 23.289 22.4581 23.2308 22.4328C23.2009 22.4198 23.1558 22.4025 23.0979 22.3804C22.393 22.1111 19.7923 21.1175 19.7923 18.2373C19.7923 15.065 22.8538 14.7002 23.5462 14.7002C23.9991 14.7002 26.1769 14.7557 27.2615 16.7939L25.2615 18.1898C24.8231 17.3015 24.0946 17.0081 23.6462 17.0081C22.5385 17.0081 22.3077 17.8201 22.3077 18.1898C22.3077 19.227 23.5112 19.6919 24.5273 20.0844C24.7932 20.1871 25.0462 20.2848 25.2615 20.3866C26.3692 20.91 28 21.7666 28 24.463C28 25.8136 26.8672 28.0002 24.0154 28.0002C20.1846 28.0002 19.1692 25.7003 19 25.2879Z" fill="#3E3E3E" />
      <path d="M9 25.5587L11.1487 24.1953C11.317 24.7026 11.9713 25.638 12.9205 25.638C13.8698 25.638 14.3557 24.663 14.3557 24.1953V15.0002H16.9982V24.1953C17.041 25.4636 16.3376 28.0002 13.2332 28.0002C10.379 28.0002 9.19242 26.3039 9 25.5587Z" fill="#3E3E3E"/>
    </symbol>

    <symbol id="Java" viewBox="0 0 192.756 192.756">
      <g fill-rule="evenodd" clip-rule="evenodd">
      <path fill="#ffffff" d="M0 0h192.756v192.756H0V0z"/>
      <path d="M80.372 101.729s-4.604 2.679 3.28 3.584c9.554 1.091 14.434.934 24.959-1.057 0 0 2.771 1.735 6.639 3.236-23.601 10.113-53.413-.585-34.878-5.763zM77.487 88.532s-5.165 3.823 2.726 4.639c10.206 1.054 18.262 1.14 32.211-1.544 0 0 1.926 1.955 4.957 3.023-28.531 8.345-60.307.657-39.894-6.118z" fill="#3174b9"/>
      <path d="M101.797 66.143c5.818 6.697-1.525 12.72-1.525 12.72s14.766-7.621 7.984-17.168c-6.332-8.899-11.189-13.32 15.102-28.566-.001-.001-41.27 10.303-21.561 33.014z" fill="#ca3132"/>
      <path d="M133.01 111.491s3.408 2.81-3.754 4.983c-13.619 4.125-56.694 5.369-68.659.164-4.298-1.872 3.766-4.467 6.303-5.015 2.646-.572 4.156-.468 4.156-.468-4.783-3.368-30.916 6.615-13.272 9.479 48.112 7.801 87.704-3.512 75.226-9.143zM82.587 74.857s-21.908 5.205-7.757 7.097c5.977.799 17.883.615 28.982-.316 9.068-.761 18.17-2.389 18.17-2.389s-3.195 1.371-5.51 2.949c-22.251 5.853-65.229 3.127-52.855-2.856 10.462-5.061 18.97-4.485 18.97-4.485zM121.891 96.824c22.617-11.75 12.16-23.044 4.859-21.522-1.785.373-2.586.695-2.586.695s.666-1.042 1.932-1.49c14.441-5.075 25.545 14.972-4.656 22.911-.001 0 .347-.314.451-.594z" fill="#3174b9"/>
      <path d="M108.256 8.504s12.523 12.531-11.881 31.794c-19.571 15.458-4.462 24.269-.006 34.34-11.426-10.307-19.807-19.382-14.185-27.826 8.254-12.395 31.125-18.406 26.072-38.308z" fill="#ca3132"/>
      <path d="M84.812 128.674c21.706 1.388 55.045-.771 55.836-11.044 0 0-1.518 3.894-17.941 6.983-18.529 3.488-41.386 3.082-54.938.845 0 0 2.777 2.298 17.043 3.216z" fill="#3174b9"/>
      <path d="M139.645 147.096h-.66v-.37h1.781v.37h-.66v1.848h-.461v-1.848zm3.554.092h-.008l-.656 1.755h-.301l-.652-1.755h-.008v1.755h-.438v-2.218h.643l.604 1.569.604-1.569h.637v2.218h-.424v-1.755h-.001zM81.255 167.921c-2.047 1.774-4.211 2.772-6.154 2.772-2.768 0-4.27-1.663-4.27-4.324 0-2.881 1.608-4.989 8.044-4.989h2.379v6.541h.001zm5.65 6.374v-19.732c0-5.043-2.876-8.371-9.809-8.371-4.045 0-7.591.999-10.474 2.272l.83 3.495c2.271-.834 5.207-1.607 8.089-1.607 3.994 0 5.713 1.607 5.713 4.934v2.495h-1.996c-9.702 0-14.08 3.764-14.08 9.423 0 4.876 2.885 7.648 8.316 7.648 3.491 0 6.099-1.441 8.534-3.55l.443 2.993h4.434zM105.762 174.295h-7.045l-8.483-27.601h6.154l5.265 16.961 1.172 5.096c2.656-7.371 4.541-14.854 5.484-22.057h5.984c-1.602 9.088-4.488 19.066-8.531 27.601zM132.799 167.921c-2.053 1.774-4.217 2.772-6.156 2.772-2.768 0-4.268-1.663-4.268-4.324 0-2.881 1.609-4.989 8.041-4.989h2.383v6.541zm5.652 6.374v-19.732c0-5.043-2.885-8.371-9.811-8.371-4.049 0-7.594.999-10.477 2.272l.83 3.495c2.271-.834 5.213-1.607 8.096-1.607 3.988 0 5.709 1.607 5.709 4.934v2.495h-1.996c-9.703 0-14.078 3.764-14.078 9.423 0 4.876 2.879 7.648 8.311 7.648 3.494 0 6.098-1.441 8.539-3.55l.445 2.993h4.432zM58.983 178.985c-1.61 2.353-4.214 4.216-7.061 5.267l-2.79-3.286c2.169-1.113 4.027-2.91 4.892-4.582.745-1.49 1.056-3.406 1.056-7.992v-31.515h6.005v31.08c0 6.134-.49 8.613-2.102 11.028z" fill="#ca3132"/>
      </g>
      </symbol>

      <symbol id="SQL" viewBox="-8.78 0 70 70">
        <path d="m 852.97077,1013.9363 c -6.55238,-0.4723 -13.02857,-2.1216 -17.00034,-4.3296 -2.26232,-1.2576 -3.98589,-2.8032 -4.66223,-4.1807 l -0.4024,-0.8196 0,-25.70807 0,-25.7081 0.31843,-0.6465 c 1.42297,-2.889 5.96432,-5.4935 12.30378,-7.0562 2.15195,-0.5305 5.2586,-1.0588 7.79304,-1.3252 2.58797,-0.2721 9.44765,-0.2307 12.02919,0.073 6.86123,0.8061 12.69967,2.6108 16.29768,5.0377 1.38756,0.9359 2.81137,2.4334 3.29371,3.4642 l 0.41358,0.8838 -0.0354,25.6303 -0.0354,25.63047 -0.33195,0.6744 c -0.18257,0.3709 -0.73406,1.1007 -1.22553,1.6216 -2.99181,3.1715 -9.40919,5.5176 -17.8267,6.5172 -1.71567,0.2038 -9.16916,0.3686 -10.92937,0.2417 z m 12.07501,-22.02839 c -0.0252,-0.0657 -1.00472,-0.93831 -2.17671,-1.93922 -1.17199,-1.00091 -2.18138,-1.86687 -2.24309,-1.92436 -0.0617,-0.0575 0.15481,-0.26106 0.48117,-0.45237 0.32635,-0.19131 0.95163,-0.7235 1.3895,-1.18265 1.2805,-1.34272 1.88466,-3.00131 1.88466,-5.17388 0,-2.1388 -0.65162,-3.8645 -1.95671,-5.1818 -1.31533,-1.3278 -2.82554,-1.8983 -5.02486,-1.8983 -3.39007,0 -5.99368,1.9781 -6.82468,5.1851 -0.28586,1.1031 -0.28432,3.33211 0.003,4.31023 0.74941,2.55136 2.79044,4.40434 5.33062,4.83946 0.8596,0.14724 0.97605,0.21071 1.5621,0.85144 0.34829,0.38078 1.06301,1.14085 1.58827,1.68904 l 0.95501,0.9967 2.53878,0 c 1.39633,0 2.51816,-0.0537 2.49296,-0.11939 z m -8.70653,-7.10848 c -0.61119,-0.31868 -0.84225,-0.56599 -1.19079,-1.27453 -0.26919,-0.54724 -0.31522,-0.85851 -0.31824,-2.15197 -0.003,-1.3143 0.0388,-1.5983 0.31987,-2.169 0.45985,-0.9339 1.09355,-1.376 2.07384,-1.4469 1.36454,-0.099 2.15217,0.5707 2.56498,2.1801 0.50612,1.97321 -0.0504,4.07107 -1.26471,4.76729 -0.63707,0.36527 -1.58737,0.40659 -2.18495,0.095 z m -11.25315,3.66269 c 2.66179,-0.5048 4.1728,-2.0528 4.1728,-4.27495 0,-1.97137 -0.97548,-3.12004 -3.6716,-4.32364 -1.54338,-0.689 -2.10241,-1.1215 -2.10241,-1.6268 0,-0.4188 0.53052,-0.8777 1.14813,-0.993 0.60302,-0.1126 2.20237,0.1652 3.14683,0.5467 l 0.79167,0.3198 0,-1.7524 0,-1.7525 -0.85923,-0.1906 c -0.53103,-0.1178 -1.64689,-0.1885 -2.92137,-0.1849 -1.80528,0 -2.15881,0.044 -2.83818,0.3138 -1.98445,0.7878 -2.92613,2.1298 -2.91107,4.1485 0.0141,1.8898 1.01108,3.06864 3.49227,4.12912 1.46399,0.62572 2.05076,1.10218 2.05076,1.66522 0,1.1965 -1.99362,1.34375 -4.10437,0.30315 -0.57805,-0.28498 -1.09739,-0.54137 -1.1541,-0.56976 -0.0567,-0.0284 -0.10311,0.79023 -0.10311,1.81917 0,1.86239 0.002,1.87137 0.33919,1.99974 1.26979,0.48278 4.07626,0.69787 5.52379,0.42335 z m 30.4308,-1.72766 0,-1.58098 -2.40584,0 -2.40583,0 0,-5.43035 0,-5.4303 -2.13089,0 -2.13088,0 0,7.0113 0,7.01131 4.53672,0 4.53672,0 0,-1.58098 z m -14.84745,-27.70503 c 4.23447,-0.2937 7.4086,-0.8482 10.20178,-1.7821 2.78264,-0.9304 4.42643,-2.0562 4.79413,-3.2834 0.14166,-0.4729 0.13146,-0.6523 -0.0665,-1.1708 -0.88775,-2.3245 -5.84694,-4.1104 -13.42493,-4.8345 -3.24154,-0.3098 -9.13671,-0.2094 -12.22745,0.2081 -4.71604,0.6372 -8.54333,1.8208 -10.2451,3.1683 -3.44251,2.726 0.19793,5.7242 8.66397,7.1354 3.67084,0.6119 8.42674,0.828 12.30414,0.559 z" fill="#00bcf2" transform="translate(-830.906 -943.981)"/>
      </symbol>

      <symbol id="Docker" viewBox="0 0 24 24" xmlns="http://www.w3.org/2000/svg">
        <path fill="#0DB7ED" fill-rule="evenodd" d="M6.94221099,14.9002344 C6.9980621,14.9002344 7.05128211,14.9107588 7.10043586,14.9297745 C7.04721586,14.9606302 7.01109801,15.018335 7.01109801,15.0842919 C7.01109801,15.1828984 7.09098782,15.2626686 7.18959432,15.2626686 C7.25710599,15.2626686 7.31570779,15.2251754 7.34608506,15.1698027 C7.36743286,15.2214082 7.37939241,15.2780367 7.37939241,15.3374756 C7.37939241,15.578939 7.18361455,15.774657 6.94221099,15.774657 C6.70080744,15.774657 6.50496978,15.578939 6.50496978,15.3374756 C6.50496978,15.0959525 6.70080744,14.9002344 6.94221099,14.9002344 L6.94221099,14.9002344 Z M6.94221099,16.0853662 C6.52978585,16.0853662 6.19420083,15.7499008 6.19420083,15.3374756 C6.19420083,14.9250505 6.52978585,14.5895253 6.94221099,14.5895253 C7.35457634,14.5895253 7.69010156,14.9250505 7.69010156,15.3374756 C7.69010156,15.7499008 7.35457634,16.0853662 6.94221099,16.0853662 L6.94221099,16.0853662 Z M20.3859431,11.1838037 C18.2619865,16.8117894 13.4653093,19.318631 7.81023526,19.318631 C5.13823222,19.318631 3.00656172,18.3995992 1.64323262,16.8672219 L1.65327865,16.8605843 C2.04609012,16.880497 2.39758135,16.8872541 2.75439457,16.8872541 C3.08065114,16.8872541 3.39979178,16.8838457 3.6953721,16.8672219 C3.72108514,16.8657867 3.75325633,16.8621989 3.77878997,16.8605843 C3.77902916,16.8605245 3.86998155,16.8546046 3.82549202,16.853887 C4.57667146,16.8075437 5.15892224,16.7031368 5.70188589,16.5482008 C5.70200548,16.548141 5.70212508,16.548141 5.70224467,16.5480812 C5.80091098,16.5198567 5.89658739,16.4901372 5.98825735,16.4583846 C6.09081051,16.4228049 6.14510687,16.3108635 6.109587,16.2083104 C6.07406714,16.1056974 5.96218553,16.0512815 5.85957258,16.0869807 C5.16992503,16.3259326 4.26010213,16.4574876 3.14505333,16.4821841 L3.14475434,16.4821841 C2.57739321,16.4947416 1.95717085,16.4797922 1.28450587,16.4365584 L1.28444607,16.4365584 C1.14529669,16.2507668 1.01649231,16.0576798 0.89869073,15.8577161 L0.71248051,15.5172277 C0.149903198,14.4112083 -0.0964037696,13.1191582 0.0343141305,11.7160038 L16.3965356,11.7160038 C17.7407294,11.7160038 19.0534696,11.2143604 19.6764427,10.6609919 C18.5601381,9.75332174 18.670764,7.59731356 19.3822377,6.774616 C19.9997093,7.270758 20.9954018,8.31584342 20.824141,9.64622396 C21.6011531,9.255625 22.9506091,9.06259783 24,9.66816973 C23.3411483,10.9541803 21.8929064,11.3383809 20.3859431,11.1838037 L20.3859431,11.1838037 Z M2.25508329,11.3188869 L4.46771995,11.3188869 L4.46771995,9.1061306 L2.25508329,9.1061306 L2.25508329,11.3188869 Z M4.80808879,11.3188869 L7.02096464,11.3188869 L7.02096464,9.1061306 L4.80808879,9.1061306 L4.80808879,11.3188869 Z M4.80808879,8.76576176 L7.02096464,8.76576176 L7.02096464,6.5530653 L4.80808879,6.5530653 L4.80808879,8.76576176 Z M7.36127369,11.3188869 L9.57402994,11.3188869 L9.57402994,9.1061306 L7.36127369,9.1061306 L7.36127369,11.3188869 Z M7.36127369,8.76576176 L9.57402994,8.76576176 L9.57402994,6.5530653 L7.36127369,6.5530653 L7.36127369,8.76576176 Z M9.91433899,11.3188869 L12.1270952,11.3188869 L12.1270952,9.1061306 L9.91433899,9.1061306 L9.91433899,11.3188869 Z M9.91433899,8.76576176 L12.1270952,8.76576176 L12.1270952,6.5530653 L9.91433899,6.5530653 L9.91433899,8.76576176 Z M9.91433899,6.21275626 L12.1270952,6.21275626 L12.1270952,4 L9.91433899,4 L9.91433899,6.21275626 Z M12.4674043,11.3188869 L14.6801605,11.3188869 L14.6801605,9.1061306 L12.4674043,9.1061306 L12.4674043,11.3188869 Z"/>
      </symbol>

    <symbol xmlns="http://www.w3.org/2000/svg" id="SB" viewBox="0 0 767.8 768">
      <path fill="#77bc1f" d="M698.3 40c-10.8 25.8-24.5 50.3-41 72.8C585.1 40.6 487.1 0 385 0 173.8 0 0 174 0 385.5 0 491 43.2 592 119.6 664.8l14.2 12.6c69.4 58.5 157.3 90.7 248 90.7 200.8 0 369.6-157.4 383.9-358 10.5-98.2-18.3-222.4-67.4-370.1zm-524 627c-6.2 7.7-15.7 12.2-25.6 12.2-18.1 0-32.9-14.9-32.9-33s14.9-33 32.9-33c7.5 0 14.9 2.6 20.7 7.4 14.1 11.4 16.3 32.3 4.9 46.4zm522.4-115.4c-95 126.7-297.9 84-428 90.1 0 0-23.1 1.4-46.3 5.2 0 0 8.7-3.7 20-8 91.3-31.8 134.5-38 190-66.5 104.5-53.2 207.8-169.6 229.3-290.7C621.9 398.2 501.3 498.3 391.4 539c-75.3 27.8-211.3 54.8-211.3 54.8l-5.5-2.9C82 545.8 79.2 345.1 247.5 280.3c73.7-28.4 144.2-12.8 223.8-31.8 85-20.2 183.3-84 223.3-167.2 44.8 133.1 98.7 341.5 2.1 470.3z"/>
    </symbol>

  <symbol id="phone" viewBox="0 0 24 24">
    <path
      d="M14.05 6C15.0268 6.19057 15.9244 6.66826 16.6281 7.37194C17.3318 8.07561 17.8095 8.97326 18 9.95
         M14.05 2C16.0793 2.22544 17.9716 3.13417 19.4163 4.57701C20.8609 6.01984 21.7721 7.91101 22 9.94
         M18.5 21C9.93959 21 3 14.0604 3 5.5C3 5.11378 3.01413 4.73086 3.04189 4.35173
         C3.07375 3.91662 3.08968 3.69907 3.2037 3.50103
         C3.29814 3.33701 3.4655 3.18146 3.63598 3.09925
         C3.84181 3 4.08188 3 4.56201 3H7.37932
         C7.78308 3 7.98496 3 8.15802 3.06645
         C8.31089 3.12515 8.44701 3.22049 8.55442 3.3441
         C8.67601 3.48403 8.745 3.67376 8.88299 4.05321
         L10.0491 7.26005
         C10.2096 7.70153 10.2899 7.92227 10.2763 8.1317
         C10.2643 8.31637 10.2012 8.49408 10.0942 8.64506
         C9.97286 8.81628 9.77145 8.93713 9.36863 9.17882
         L8 10
         C9.2019 12.6489 11.3501 14.7999 14 16
         L14.8212 14.6314
         C15.0629 14.2285 15.1837 14.0271 15.3549 13.9058
         C15.5059 13.7988 15.6836 13.7357 15.8683 13.7237
         C16.0777 13.7101 16.2985 13.7904 16.74 13.9509
         L19.9468 15.117
         C20.3262 15.255 20.516 15.324 20.6559 15.4456
         C20.7795 15.553 20.8749 15.6891 20.9335 15.842
         C21 16.015 21 16.2169 21 16.6207V19.438
         C21 19.9181 21 20.1582 20.9007 20.364
         C20.8185 20.5345 20.663 20.7019 20.499 20.7963
         C20.3009 20.9103 20.0834 20.9262 19.6483 20.9581
         C19.2691 20.9859 18.8862 21 18.5 21Z"
      fill="none"
      stroke="currentColor"
      stroke-width="2"
      stroke-linecap="round"
      stroke-linejoin="round"
    />
  </symbol>

  <symbol
    id="gmail"
    viewBox="7.086 -169.483 1277.149 1277.149"
    shape-rendering="geometricPrecision"
    text-rendering="geometricPrecision"
    image-rendering="optimizeQuality"
  >
    <defs>
      <linearGradient
        id="env-gradient"
        gradientUnits="userSpaceOnUse"
        x1="1959.712"
        y1="737.107"
        x2="26066.213"
        y2="737.107"
        gradientTransform="matrix(.0283 0 0 -.0283 248.36 225.244)"
      >
        <stop offset="0" stop-color="#f8f6ef" />
        <stop offset="1" stop-color="#e7e4d6" />
      </linearGradient>
    </defs>

    <path fill="none" d="M1138.734 931.095h.283M1139.017 931.095h-.283" />

    <path
      d="M1179.439 7.087c57.543 0 104.627 47.083 104.627 104.626v30.331
         l-145.36 103.833-494.873 340.894L148.96 242.419v688.676h-37.247
         c-57.543 0-104.627-47.082-104.627-104.625V111.742
         C7.086 54.198 54.17 7.115 111.713 7.115l532.12 394.525
         L1179.41 7.115l.029-.028z"
      fill="#e75a4d"
    />

    <path fill="url(#env-gradient)" d="M111.713 7.087l532.12 394.525L1179.439 7.087z" />

    <path
      fill="#e7e4d7"
      d="M148.96 242.419v688.676h989.774V245.877L643.833 586.771z"
    />

    <path
      fill="#b8b7ae"
      d="M148.96 931.095l494.873-344.324-2.24-1.586L148.96 923.527z"
    />

    <path
      fill="#b7b6ad"
      d="M1138.734 245.877l.283 685.218-495.184-344.324z"
    />

    <path
      fill="#b2392f"
      d="M1284.066 142.044l.17 684.51
         c-2.494 76.082-35.461 103.238-145.219 104.514
         l-.283-685.219 145.36-103.833-.028.028z"
    />

    <path fill="#f7f5ed" d="M111.713 7.087l532.12 394.525L1179.439 7.087z" />
  </symbol>

  <symbol id="linkedin" viewBox="0 0 382 382">
  <path
    fill="#0077B7"
    d="M347.445,0H34.555C15.471,0,0,15.471,0,34.555v312.889
       C0,366.529,15.471,382,34.555,382h312.889
       C366.529,382,382,366.529,382,347.444V34.555
       C382,15.471,366.529,0,347.445,0z

       M118.207,329.844c0,5.554-4.502,10.056-10.056,10.056H65.345
       c-5.554,0-10.056-4.502-10.056-10.056V150.403
       c0-5.554,4.502-10.056,10.056-10.056h42.806
       c5.554,0,10.056,4.502,10.056,10.056V329.844z

       M86.748,123.432c-22.459,0-40.666-18.207-40.666-40.666
       S64.289,42.1,86.748,42.1s40.666,18.207,40.666,40.666
       S109.208,123.432,86.748,123.432z

       M341.91,330.654c0,5.106-4.14,9.246-9.246,9.246H286.73
       c-5.106,0-9.246-4.14-9.246-9.246v-84.168
       c0-12.556,3.683-55.021-32.813-55.021
       c-28.309,0-34.051,29.066-35.204,42.11v97.079
       c0,5.106-4.139,9.246-9.246,9.246h-44.426
       c-5.106,0-9.246-4.14-9.246-9.246V149.593
       c0-5.106,4.14-9.246,9.246-9.246h44.426
       c5.106,0,9.246,4.14,9.246,9.246v15.655
       c10.497-15.753,26.097-27.912,59.312-27.912
       c73.552,0,73.131,68.716,73.131,106.472
       L341.91,330.654z"
  />
</symbol>



  
</svg>






